<svg width="135" height="24" viewBox="0 0 135 24" fill="none" xmlns="http://www.w3.org/2000/svg">
<path d="M20.75 6.75H5.75C5.55109 6.75 5.36032 6.67098 5.21967 6.53033C5.07902 6.38968 5 6.19891 5 6C5 5.80109 5.07902 5.61032 5.21967 5.46967C5.36032 5.32902 5.55109 5.25 5.75 5.25H18.5C18.6989 5.25 18.8897 5.17098 19.0303 5.03033C19.171 4.88968 19.25 4.69891 19.25 4.5C19.25 4.30109 19.171 4.11032 19.0303 3.96967C18.8897 3.82902 18.6989 3.75 18.5 3.75H5.75C5.15326 3.75 4.58097 3.98705 4.15901 4.40901C3.73705 4.83097 3.5 5.40326 3.5 6V18C3.5 18.5967 3.73705 19.169 4.15901 19.591C4.58097 20.0129 5.15326 20.25 5.75 20.25H20.75C21.1478 20.25 21.5294 20.092 21.8107 19.8107C22.092 19.5294 22.25 19.1478 22.25 18.75V8.25C22.25 7.85218 22.092 7.47064 21.8107 7.18934C21.5294 6.90804 21.1478 6.75 20.75 6.75ZM17.375 14.25C17.1525 14.25 16.935 14.184 16.75 14.0604C16.565 13.9368 16.4208 13.7611 16.3356 13.5555C16.2505 13.35 16.2282 13.1238 16.2716 12.9055C16.315 12.6873 16.4222 12.4868 16.5795 12.3295C16.7368 12.1722 16.9373 12.065 17.1555 12.0216C17.3738 11.9782 17.6 12.0005 17.8055 12.0856C18.0111 12.1708 18.1868 12.315 18.3104 12.5C18.434 12.685 18.5 12.9025 18.5 13.125C18.5 13.4234 18.3815 13.7095 18.1705 13.9205C17.9595 14.1315 17.6734 14.25 17.375 14.25Z" fill="#0775F5"/>
<path d="M33.548 17V5.2H35.628V17H33.548ZM43.7359 17V13.232C43.7359 13.0187 43.7359 12.832 43.7359 12.672C43.7359 12.5067 43.7359 12.3573 43.7359 12.224C43.7359 11.84 43.6799 11.496 43.5679 11.192C43.4612 10.8827 43.2745 10.64 43.0079 10.464C42.7465 10.288 42.3839 10.2 41.9199 10.2C41.5145 10.2 41.1545 10.2987 40.8399 10.496C40.5252 10.688 40.2772 10.9547 40.0959 11.296C39.9199 11.632 39.8319 12.0213 39.8319 12.464L39.1199 12.024C39.1199 11.3147 39.2799 10.6853 39.5999 10.136C39.9252 9.58133 40.3599 9.14667 40.9039 8.832C41.4479 8.51733 42.0505 8.36 42.7119 8.36C43.3945 8.36 43.9679 8.49333 44.4319 8.76C44.9012 9.02667 45.2532 9.40533 45.4879 9.896C45.7279 10.3867 45.8479 10.9627 45.8479 11.624C45.8479 11.88 45.8479 12.168 45.8479 12.488C45.8479 12.808 45.8479 13.1227 45.8479 13.432V17H43.7359ZM37.7279 17V8.504H39.8319V17H37.7279ZM50.7805 17.176C50.1458 17.176 49.5885 17.0773 49.1085 16.88C48.6285 16.6773 48.2525 16.3867 47.9805 16.008C47.7085 15.6293 47.5725 15.1733 47.5725 14.64C47.5725 14.0587 47.7298 13.5813 48.0445 13.208C48.3645 12.8293 48.7938 12.5387 49.3325 12.336C49.8712 12.128 50.4685 11.9947 51.1245 11.936C52.0952 11.84 52.7725 11.7493 53.1565 11.664C53.5458 11.5733 53.7405 11.4293 53.7405 11.232C53.7405 11.2267 53.7405 11.224 53.7405 11.224C53.7405 11.2187 53.7405 11.216 53.7405 11.216C53.7405 10.8427 53.5725 10.5547 53.2365 10.352C52.9005 10.1493 52.4258 10.048 51.8125 10.048C51.1672 10.048 50.6712 10.1627 50.3245 10.392C49.9832 10.616 49.8125 10.9733 49.8125 11.464H47.7325C47.7325 10.7973 47.9085 10.2347 48.2605 9.776C48.6178 9.312 49.1058 8.96 49.7245 8.72C50.3432 8.48 51.0445 8.36 51.8285 8.36C52.5592 8.36 53.2285 8.46933 53.8365 8.688C54.4445 8.90667 54.9325 9.23733 55.3005 9.68C55.6685 10.1227 55.8525 10.6747 55.8525 11.336C55.8525 11.448 55.8525 11.56 55.8525 11.672C55.8525 11.784 55.8525 11.896 55.8525 12.008V15.208C55.8525 15.4107 55.8578 15.6107 55.8685 15.808C55.8845 16 55.9138 16.1733 55.9565 16.328C56.0098 16.4987 56.0738 16.6427 56.1485 16.76C56.2232 16.8773 56.2818 16.9573 56.3245 17H54.2445C54.2072 16.9627 54.1538 16.8907 54.0845 16.784C54.0205 16.672 53.9618 16.544 53.9085 16.4C53.8552 16.24 53.8152 16.0693 53.7885 15.888C53.7618 15.7013 53.7485 15.496 53.7485 15.272L54.1645 15.56C54.0045 15.8853 53.7592 16.1707 53.4285 16.416C53.1032 16.656 52.7138 16.8427 52.2605 16.976C51.8072 17.1093 51.3138 17.176 50.7805 17.176ZM51.2925 15.52C51.7298 15.52 52.1352 15.4453 52.5085 15.296C52.8818 15.1467 53.1832 14.9173 53.4125 14.608C53.6418 14.2933 53.7565 13.8907 53.7565 13.4V12.264L54.2685 12.84C53.9272 12.968 53.5165 13.0747 53.0365 13.16C52.5565 13.24 52.0712 13.304 51.5805 13.352C50.9512 13.4107 50.4765 13.52 50.1565 13.68C49.8418 13.84 49.6845 14.1013 49.6845 14.464C49.6845 14.816 49.8178 15.08 50.0845 15.256C50.3512 15.432 50.7538 15.52 51.2925 15.52ZM61.5069 17.16C61.2029 17.16 60.8935 17.1307 60.5789 17.072C60.2642 17.0133 59.9762 16.904 59.7149 16.744C59.4535 16.584 59.2429 16.3493 59.0829 16.04C58.9229 15.7307 58.8429 15.3227 58.8429 14.816C58.8429 14.6987 58.8429 14.5813 58.8429 14.464C58.8429 14.3413 58.8429 14.216 58.8429 14.088V10.184H56.8349V8.504H57.6509C57.9282 8.504 58.1469 8.49333 58.3069 8.472C58.4669 8.44533 58.5842 8.38667 58.6589 8.296C58.7335 8.20533 58.7815 8.064 58.8029 7.872C58.8295 7.67467 58.8429 7.40267 58.8429 7.056V5.704H60.9549V8.504H63.4829V10.184H60.9549V13.592C60.9549 13.6933 60.9549 13.7947 60.9549 13.896C60.9549 13.992 60.9549 14.0853 60.9549 14.176C60.9549 14.5707 61.0029 14.888 61.0989 15.128C61.1949 15.368 61.4215 15.488 61.7789 15.488C61.9495 15.488 62.1095 15.472 62.2589 15.44C62.4135 15.408 62.5282 15.376 62.6029 15.344V16.992C62.5015 17.0293 62.3549 17.0667 62.1629 17.104C61.9709 17.1413 61.7522 17.16 61.5069 17.16ZM65.6213 13.432V11.936H71.5653L71.3253 12.336C71.3253 12.304 71.3253 12.2693 71.3253 12.232C71.3253 12.1893 71.3253 12.1547 71.3253 12.128C71.3253 11.76 71.2426 11.416 71.0773 11.096C70.9119 10.7707 70.6613 10.5093 70.3253 10.312C69.9893 10.1093 69.5626 10.008 69.0453 10.008C68.5333 10.008 68.0879 10.1173 67.7093 10.336C67.3359 10.5493 67.0453 10.8587 66.8373 11.264C66.6346 11.6693 66.5333 12.1547 66.5333 12.72C66.5333 13.3013 66.6319 13.8027 66.8293 14.224C67.0266 14.64 67.3146 14.96 67.6933 15.184C68.0773 15.4027 68.5439 15.512 69.0933 15.512C69.4666 15.512 69.7893 15.4773 70.0613 15.408C70.3333 15.3387 70.5546 15.2453 70.7253 15.128C70.9013 15.0053 71.0319 14.8747 71.1173 14.736C71.2079 14.5973 71.2613 14.4587 71.2773 14.32H73.3733C73.3413 14.6773 73.2213 15.0267 73.0133 15.368C72.8106 15.704 72.5253 16.0107 72.1573 16.288C71.7893 16.56 71.3413 16.7787 70.8133 16.944C70.2906 17.104 69.6933 17.184 69.0213 17.184C68.1093 17.184 67.3119 16.9973 66.6293 16.624C65.9466 16.2507 65.4133 15.7307 65.0293 15.064C64.6506 14.3973 64.4613 13.6347 64.4613 12.776C64.4613 11.896 64.6533 11.1253 65.0373 10.464C65.4266 9.80267 65.9653 9.288 66.6533 8.92C67.3413 8.54667 68.1306 8.36 69.0213 8.36C69.9386 8.36 70.7306 8.54667 71.3973 8.92C72.0693 9.29333 72.5866 9.81333 72.9493 10.48C73.3119 11.1413 73.4933 11.912 73.4933 12.792C73.4933 12.904 73.4906 13.024 73.4853 13.152C73.4799 13.28 73.4719 13.3733 73.4613 13.432H65.6213ZM77.4199 4.496V17H75.3479V4.496H77.4199ZM80.8916 17L79.1156 5.2H81.2916L82.6516 16.448L82.3476 16.432L84.5236 5.2H87.1796L89.3476 16.432L89.0436 16.448L90.4036 5.2H92.5876L90.7956 17H87.5636L85.7396 6.728H85.9636L84.1396 17H80.8916ZM96.6086 17.176C95.974 17.176 95.4166 17.0773 94.9366 16.88C94.4566 16.6773 94.0806 16.3867 93.8086 16.008C93.5366 15.6293 93.4006 15.1733 93.4006 14.64C93.4006 14.0587 93.558 13.5813 93.8726 13.208C94.1926 12.8293 94.622 12.5387 95.1606 12.336C95.6993 12.128 96.2966 11.9947 96.9526 11.936C97.9233 11.84 98.6006 11.7493 98.9846 11.664C99.374 11.5733 99.5686 11.4293 99.5686 11.232C99.5686 11.2267 99.5686 11.224 99.5686 11.224C99.5686 11.2187 99.5686 11.216 99.5686 11.216C99.5686 10.8427 99.4006 10.5547 99.0646 10.352C98.7286 10.1493 98.254 10.048 97.6406 10.048C96.9953 10.048 96.4993 10.1627 96.1526 10.392C95.8113 10.616 95.6406 10.9733 95.6406 11.464H93.5606C93.5606 10.7973 93.7366 10.2347 94.0886 9.776C94.446 9.312 94.934 8.96 95.5526 8.72C96.1713 8.48 96.8726 8.36 97.6566 8.36C98.3873 8.36 99.0566 8.46933 99.6646 8.688C100.273 8.90667 100.761 9.23733 101.129 9.68C101.497 10.1227 101.681 10.6747 101.681 11.336C101.681 11.448 101.681 11.56 101.681 11.672C101.681 11.784 101.681 11.896 101.681 12.008V15.208C101.681 15.4107 101.686 15.6107 101.697 15.808C101.713 16 101.742 16.1733 101.785 16.328C101.838 16.4987 101.902 16.6427 101.977 16.76C102.051 16.8773 102.11 16.9573 102.153 17H100.073C100.035 16.9627 99.982 16.8907 99.9126 16.784C99.8486 16.672 99.79 16.544 99.7366 16.4C99.6833 16.24 99.6433 16.0693 99.6166 15.888C99.59 15.7013 99.5766 15.496 99.5766 15.272L99.9926 15.56C99.8326 15.8853 99.5873 16.1707 99.2566 16.416C98.9313 16.656 98.542 16.8427 98.0886 16.976C97.6353 17.1093 97.142 17.176 96.6086 17.176ZM97.1206 15.52C97.558 15.52 97.9633 15.4453 98.3366 15.296C98.71 15.1467 99.0113 14.9173 99.2406 14.608C99.47 14.2933 99.5846 13.8907 99.5846 13.4V12.264L100.097 12.84C99.7553 12.968 99.3446 13.0747 98.8646 13.16C98.3846 13.24 97.8993 13.304 97.4086 13.352C96.7793 13.4107 96.3046 13.52 95.9846 13.68C95.67 13.84 95.5126 14.1013 95.5126 14.464C95.5126 14.816 95.646 15.08 95.9126 15.256C96.1793 15.432 96.582 15.52 97.1206 15.52ZM105.826 4.496V17H103.754V4.496H105.826ZM110.17 4.496V17H108.098V4.496H110.17ZM113.106 13.432V11.936H119.05L118.81 12.336C118.81 12.304 118.81 12.2693 118.81 12.232C118.81 12.1893 118.81 12.1547 118.81 12.128C118.81 11.76 118.727 11.416 118.562 11.096C118.396 10.7707 118.146 10.5093 117.81 10.312C117.474 10.1093 117.047 10.008 116.53 10.008C116.018 10.008 115.572 10.1173 115.194 10.336C114.82 10.5493 114.53 10.8587 114.322 11.264C114.119 11.6693 114.018 12.1547 114.018 12.72C114.018 13.3013 114.116 13.8027 114.314 14.224C114.511 14.64 114.799 14.96 115.178 15.184C115.562 15.4027 116.028 15.512 116.578 15.512C116.951 15.512 117.274 15.4773 117.546 15.408C117.818 15.3387 118.039 15.2453 118.21 15.128C118.386 15.0053 118.516 14.8747 118.602 14.736C118.692 14.5973 118.746 14.4587 118.762 14.32H120.858C120.826 14.6773 120.706 15.0267 120.498 15.368C120.295 15.704 120.01 16.0107 119.642 16.288C119.274 16.56 118.826 16.7787 118.298 16.944C117.775 17.104 117.178 17.184 116.506 17.184C115.594 17.184 114.796 16.9973 114.114 16.624C113.431 16.2507 112.898 15.7307 112.514 15.064C112.135 14.3973 111.946 13.6347 111.946 12.776C111.946 11.896 112.138 11.1253 112.522 10.464C112.911 9.80267 113.45 9.288 114.138 8.92C114.826 8.54667 115.615 8.36 116.506 8.36C117.423 8.36 118.215 8.54667 118.882 8.92C119.554 9.29333 120.071 9.81333 120.434 10.48C120.796 11.1413 120.978 11.912 120.978 12.792C120.978 12.904 120.975 13.024 120.97 13.152C120.964 13.28 120.956 13.3733 120.946 13.432H113.106ZM126.523 17.16C126.219 17.16 125.909 17.1307 125.595 17.072C125.28 17.0133 124.992 16.904 124.731 16.744C124.469 16.584 124.259 16.3493 124.099 16.04C123.939 15.7307 123.859 15.3227 123.859 14.816C123.859 14.6987 123.859 14.5813 123.859 14.464C123.859 14.3413 123.859 14.216 123.859 14.088V10.184H121.851V8.504H122.667C122.944 8.504 123.163 8.49333 123.323 8.472C123.483 8.44533 123.6 8.38667 123.674 8.296C123.749 8.20533 123.797 8.064 123.819 7.872C123.845 7.67467 123.859 7.40267 123.859 7.056V5.704H125.97V8.504H128.499V10.184H125.97V13.592C125.97 13.6933 125.97 13.7947 125.97 13.896C125.97 13.992 125.97 14.0853 125.97 14.176C125.97 14.5707 126.019 14.888 126.115 15.128C126.211 15.368 126.437 15.488 126.795 15.488C126.965 15.488 127.125 15.472 127.275 15.44C127.429 15.408 127.544 15.376 127.619 15.344V16.992C127.517 17.0293 127.371 17.0667 127.179 17.104C126.987 17.1413 126.768 17.16 126.523 17.16ZM131.271 17.224C130.941 17.224 130.661 17.1093 130.431 16.88C130.202 16.6507 130.087 16.3707 130.087 16.04C130.087 15.7147 130.202 15.4373 130.431 15.208C130.661 14.9733 130.941 14.856 131.271 14.856C131.597 14.856 131.874 14.9733 132.103 15.208C132.338 15.4373 132.455 15.7147 132.455 16.04C132.455 16.3707 132.338 16.6507 132.103 16.88C131.874 17.1093 131.597 17.224 131.271 17.224Z" fill="#1A202C"/>
</svg>
